<?xml version="1.0" encoding="UTF-8" standalone="no"?>
<!-- Created with Inkscape (http://www.inkscape.org/) -->

<svg
   xmlns:dc="http://purl.org/dc/elements/1.1/"
   xmlns:cc="http://creativecommons.org/ns#"
   xmlns:rdf="http://www.w3.org/1999/02/22-rdf-syntax-ns#"
   xmlns:svg="http://www.w3.org/2000/svg"
   xmlns="http://www.w3.org/2000/svg"
   xmlns:sodipodi="http://sodipodi.sourceforge.net/DTD/sodipodi-0.dtd"
   xmlns:inkscape="http://www.inkscape.org/namespaces/inkscape"
   width="210mm"
   height="297mm"
   viewBox="0 0 210 297"
   version="1.1"
   id="svg1"
   inkscape:version="0.92.1 r15371"
   sodipodi:docname="loupe.svg">
  <metadata
     id="metadata4494">
    <rdf:RDF>
      <cc:Work
         rdf:about="">
        <dc:format>image/svg+xml</dc:format>
        <dc:type
           rdf:resource="http://purl.org/dc/dcmitype/StillImage" />
      </cc:Work>
    </rdf:RDF>
  </metadata>
  <sodipodi:namedview
     id="namedview1"
     pagecolor="#505050"
     bordercolor="#eeeeee"
     borderopacity="1"
     inkscape:showpageshadow="0"
     inkscape:pageopacity="0"
     inkscape:pagecheckerboard="0"
     inkscape:deskcolor="#505050"
     inkscape:document-units="mm"
     showgrid="false"
     inkscape:zoom="3.8400421"
     inkscape:cx="-10.727453"
     inkscape:cy="1111.3452"
     inkscape:window-width="1366"
     inkscape:window-height="745"
     inkscape:window-x="-8"
     inkscape:window-y="-8"
     inkscape:window-maximized="1"
     inkscape:current-layer="layer1" />
  <defs
     id="defs1" />
  <g
     inkscape:label="Calque 1"
     inkscape:groupmode="layer"
     id="layer1">
    <g
       id="g4504">
      <path
         id="path4"
         style="display:inline;opacity:1;fill:none;stroke:#510877;stroke-width:2.39999986;stroke-linejoin:round;stroke-dasharray:none"
         d="m -4.7644851,-13.440138 c 1.3652397,-0.441011 2.8889733,-0.683549 4.19974839,-0.723689"
         sodipodi:nodetypes="cc"
         inkscape:connector-curvature="0" />
      <path
         id="path2"
         style="opacity:1;fill:none;stroke:#510877;stroke-width:2.39999986;stroke-linejoin:round;stroke-dasharray:none"
         d="m 12.404608,11.912079 c -1.68941,1.783097 -3.6602235,3.13941 -5.7775851,4.065303 -2.1173653,0.925891 -4.3812857,1.421361 -6.65690998,1.482768 -2.27562772,0.06141 -4.56296282,-0.311242 -6.72716092,-1.121599 -2.1641984,-0.81035 -4.205258,-2.058404 -5.988336,-3.747796 -1.783078,-1.689392 -3.139368,-3.6601905 -4.065238,-5.7775436 -0.925866,-2.1173567 -1.421313,-4.3812679 -1.482695,-6.65689641 -0.06139,-2.27562519 0.311294,-4.56296739 1.12167,-6.72717549 0.810375,-2.1642078 2.058451,-4.2052845 3.747861,-5.9883825 1.689409,-1.783098 3.6602199,-3.139414 5.7775851,-4.065307 2.1173644,-0.925892 4.3812827,-1.421362 6.65690978,-1.482771 2.27562712,-0.06141 4.56296252,0.311245 6.72716092,1.121598 2.1641984,0.810352 4.2052597,2.058406 5.9883382,3.747798 1.783079,1.689392 3.139371,3.6601891 4.065241,5.7775457 0.925866,2.1173539 1.421313,4.3812707 1.482696,6.65689816 0.06138,2.27562744 -0.311295,4.56296884 -1.121674,6.72717564 -0.810376,2.164211 -2.058453,4.2052865 -3.747863,5.9883845 z"
         sodipodi:nodetypes="sssssssssssssssss"
         inkscape:connector-curvature="0" />
      <path
         style="opacity:1;fill:none;stroke:#510877;stroke-width:2.39999986;stroke-linejoin:round;stroke-dasharray:none;stroke-dashoffset:0"
         d="m -15.144975,15.392772 2.648057,2.508922 -13.629645,14.385486 -5.564754,-5.272372 13.629645,-14.385485 2.763187,2.618004 2.21286,-2.335575"
         id="path3"
         sodipodi:nodetypes="ccccccc"
         inkscape:connector-curvature="0" />
      <path
         id="path5"
         style="display:inline;opacity:1;fill:none;stroke:#510877;stroke-width:2.39999986;stroke-linejoin:round;stroke-dasharray:none"
         d="m 3.8322436,-13.328713 c 1.8021399,0.674793 3.5017449,1.714061 4.986529,3.120832 1.4847834,1.4067702 2.6141814,3.0478651 3.3851654,4.810998 0.770983,1.7631318 0.874511,3.6197628 0.925637,5.51468694 C 13.180695,2.012725 12.043567,3.8485015 11.368774,5.6506399 11.031377,6.5517092 10.120553,7.4960465 9.600539,8.3318107"
         sodipodi:nodetypes="cccccc"
         inkscape:connector-curvature="0" />
    </g>
  </g>
</svg>
