<?xml version="1.0" encoding="UTF-8" standalone="no"?>
<!-- Created with Inkscape (http://www.inkscape.org/) -->

<svg
   width="210mm"
   height="297mm"
   viewBox="0 0 210 297"
   version="1.1"
   id="svg1"
   inkscape:version="1.3-dev (894578dd, 2022-09-01)"
   sodipodi:docname="question.svg"
   xmlns:inkscape="http://www.inkscape.org/namespaces/inkscape"
   xmlns:sodipodi="http://sodipodi.sourceforge.net/DTD/sodipodi-0.dtd"
   xmlns="http://www.w3.org/2000/svg"
   xmlns:svg="http://www.w3.org/2000/svg">
  <sodipodi:namedview
     id="namedview1"
     pagecolor="#505050"
     bordercolor="#eeeeee"
     borderopacity="1"
     inkscape:showpageshadow="0"
     inkscape:pageopacity="0"
     inkscape:pagecheckerboard="0"
     inkscape:deskcolor="#505050"
     inkscape:document-units="mm"
     showgrid="false"
     inkscape:zoom="0.33941498"
     inkscape:cx="321.1408"
     inkscape:cy="100.17236"
     inkscape:window-width="1396"
     inkscape:window-height="952"
     inkscape:window-x="343"
     inkscape:window-y="50"
     inkscape:window-maximized="0"
     inkscape:current-layer="layer1" />
  <defs
     id="defs1" />
  <g
     inkscape:label="Calque 1"
     inkscape:groupmode="layer"
     id="layer1">
    <g
       aria-label="?"
       id="text1"
       style="font-size:218.906px;font-family:Verdana;-inkscape-font-specification:Verdana;text-align:center;text-anchor:middle;stroke-width:6;stroke-linejoin:round;fill:#000000;fill-opacity:1;stroke:#1fca0e;stroke-opacity:1;stroke-dasharray:none">
      <path
         d="M -9.8181272,33.5838 C -9.4401149,28.755954 -8.011499,21.346953 -6.3985037,17.152026 -4.8308175,13.019035 -2.301142,8.8504144 1.1905228,4.6461653 3.7558276,1.5820513 8.3519987,-2.8716028 14.979036,-8.714797 c 6.698296,-5.914453 11.045062,-10.617511 13.040299,-14.109176 1.995237,-3.491665 2.992856,-7.303993 2.992856,-11.436984 0,-3.741069 -0.730399,-7.250549 -2.191198,-10.528438 -1.460799,-3.277889 -3.651997,-6.324189 -6.573594,-9.138898 -2.921597,-2.850339 -6.172764,-4.988093 -9.753502,-6.413262 -3.5807381,-1.425169 -7.4910463,-2.137754 -11.73092494,-2.137754 -4.09736166,0 -7.85624566,0.641326 -11.27665206,1.923979 -3.420406,1.282652 -6.502335,3.20663 -9.245786,5.771935 -2.743451,2.565305 -5.014815,5.852101 -6.814091,9.86039 -1.517191,3.535829 -2.507879,6.784843 -3.251724,10.236167 -0.342853,0.930989 -4.697839,3.60719 -5.673399,3.365293 -3.295704,-0.391922 -6.591408,-0.783843 -9.887112,-1.175765 -1.460859,-0.315472 -4.248594,-4.006475 -4.111836,-5.905545 0.94571,-4.856774 2.525088,-9.887372 4.459222,-14.02901 2.636564,-5.593789 6.146042,-10.332478 10.528438,-14.216064 4.418025,-3.883587 9.539727,-6.796277 15.365106,-8.73807 5.82538,-1.941793 12.3544366,-2.91269 19.58717096,-2.91269 7.66028504,0 14.54563404,1.042155 20.65604704,3.126465 6.110414,2.08431 11.445891,5.210776 16.006433,9.379396 4.560542,4.16862 7.980948,8.773699 10.261219,13.815235 2.280271,5.041537 3.420407,10.519531 3.420407,16.433984 -0.12295,5.278463 -0.919328,9.971919 -2.705596,14.489963 -1.311396,3.306884 -3.167891,6.394897 -5.083845,8.991928 -2.915062,3.8755409 -6.230052,7.4107956 -9.406117,10.5284382 C 31.640156,0.37733784 29.497949,2.3658944 27.164234,4.4323899 20.893489,9.99055 16.796127,14.087912 14.872148,16.724475 c -2.028156,2.82452 -3.428956,5.998282 -4.275508,9.085454 -0.46318,1.710204 -1.1728853,5.126165 -1.4401045,7.905245 -0.079557,1.941895 -3.5477054,4.745617 -4.7861037,4.676716 -3.0819286,0 -6.1638572,0 -9.2457859,0 C -6.4081997,38.243784 -9.75464,35.334327 -9.8181272,33.5838 Z"
         style="font-family:Arial;-inkscape-font-specification:Arial;fill:#000000;fill-opacity:1;stroke:#1fca0e;stroke-opacity:1;stroke-width:6;stroke-dasharray:none"
         id="path2"
         sodipodi:nodetypes="ccccssscsssscccccccsssssccccccccccc" />
    </g>
    <path
       style="fill:#000000;fill-opacity:1;stroke:#1fca0e;stroke-width:6.01200008;stroke-linejoin:round;stroke-dasharray:none;stroke-opacity:1"
       d="m -5.1297454,59.195374 10.4140114,0 5.921443,5.941624 v 9.903164 l -5.3333349,5.981982 -11.5651502,0.09744 -4.9770069,-5.714737 0.04872,-10.523276 5.1955322,-5.686198"
       id="path3"
       sodipodi:nodetypes="ccccccccc" />
  </g>
</svg>
